<svg width="55" height="46" viewBox="0 0 55 46" fill="none" xmlns="http://www.w3.org/2000/svg">
<path d="M25.0719 19.617C21.8645 20.1165 18.883 21.8648 17.4148 24.8845C16.1047 27.5864 16.0596 30.7196 16.4661 33.694C16.8727 36.6683 17.7536 39.5518 18.1376 42.5262C18.2505 43.4117 18.2957 44.4334 17.731 45.1145C13.3943 50.1777 2.89119 32.1273 1.76183 29.153C-1.85213 19.5943 -0.338786 6.28925 10.3676 2.24779C14.9076 0.522221 20.4189 1.33959 23.9199 4.69991C24.6653 5.40376 25.3881 6.26654 26.382 6.5163C27.805 6.87957 29.2054 5.85786 30.1992 4.79073C33.8132 0.908203 39.2115 -0.908184 44.4292 0.499516C49.308 1.8164 53.3512 5.92597 54.5483 10.8756C55.4518 14.5311 54.8871 18.4363 53.577 21.9556C50.2115 31.0375 43.2546 38.6663 35.462 44.2063C34.8748 44.615 34.2649 45.0237 33.5421 45.1145C31.961 45.2734 30.6735 43.5933 30.6284 41.9812C30.5606 39.4383 32.2321 37.463 33.2259 35.2833C34.3553 32.8085 35.078 30.1293 35.2136 27.4047C35.2813 25.9289 35.1684 24.4077 34.4682 23.0908C33.2259 20.7522 30.4025 19.6851 27.7598 19.5262C26.8789 19.4353 25.9528 19.4808 25.0719 19.617Z" fill="#239CA2"/>
</svg>
